<svg xmlns="http://www.w3.org/2000/svg" width="161" height="28" viewBox="0 0 161 28">
    <g fill="none" fill-rule="evenodd">
        <path  d="M0 0H1670V4515H0z" transform="translate(-223 -37)"/>
        <path  d="M0 0L1670 0 1670 102 0 102z" opacity=".99" transform="translate(-223 -37)"/>
        <path fill="#762FDD" d="M383.704 60.698V37.826h-4.756v8.67c-1.147-1.72-2.935-2.699-5.263-2.699-4.284 0-7.691 3.846-7.691 8.603 0 4.756 3.407 8.636 7.691 8.636 2.328 0 4.116-.979 5.263-2.7v2.362h4.757zm-4.756-8.298c0 2.327-1.822 4.081-4.15 4.081-2.293 0-4.149-1.788-4.149-4.081 0-2.26 1.856-4.082 4.15-4.082 2.327 0 4.149 1.788 4.149 4.082zm-15.018-4.318c.574 0 1.147.1 1.72.236V44c-.54-.102-1.079-.203-1.585-.203-1.855 0-3.306.81-4.284 2.227v-1.89h-4.757v16.564h4.757v-8.163c0-3.07 1.855-4.453 4.15-4.453zm-10.995-8.214c0-1.552-1.316-2.868-2.901-2.868-1.586 0-2.901 1.316-2.901 2.868 0 1.585 1.315 2.9 2.901 2.9 1.585 0 2.901-1.315 2.901-2.9zm-6.98 12.532c0-4.757-3.407-8.603-7.691-8.603-2.294 0-4.082.945-5.229 2.665v-8.636h-4.757v22.872h4.757v-2.327c1.147 1.72 2.935 2.665 5.229 2.665 4.284 0 7.691-3.88 7.691-8.636zm-4.655 0c0 2.293-1.822 4.081-4.116 4.081-2.327 0-4.149-1.754-4.149-4.081 0-2.294 1.822-4.082 4.15-4.082 2.293 0 4.115 1.822 4.115 4.082zm-20.376 8.298h4.757V37.826h-4.757v8.67c-1.147-1.72-2.935-2.699-5.263-2.699-4.284 0-7.691 3.846-7.691 8.603 0 4.756 3.407 8.636 7.691 8.636 2.328 0 4.116-.979 5.263-2.7v2.362zm0-8.298c0 2.327-1.822 4.081-4.15 4.081-2.293 0-4.149-1.788-4.149-4.081 0-2.26 1.856-4.082 4.15-4.082 2.327 0 4.149 1.788 4.149 4.082zm-19.452 8.298h4.756V51.32c0-4.69-2.563-7.523-6.814-7.523-1.89 0-3.441.911-4.487 2.497v-2.16h-4.756v16.564h4.756v-8.77c0-2.16 1.282-3.577 3.272-3.577 1.957 0 3.273 1.417 3.273 3.576v8.771zm-13.126-7.151c.067-.54.1-1.316.1-1.687 0-4.555-3.676-8.063-8.163-8.063-4.824 0-8.602 3.71-8.602 8.535 0 4.892 3.812 8.704 8.703 8.704 4.15 0 7.287-2.328 7.827-5.904h-4.656c-.27 1.147-1.45 1.957-3.306 1.957-2.226 0-3.88-1.383-4.217-3.542h12.314zm-4.858-3.037h-7.22c.574-1.956 1.991-2.867 3.813-2.867 1.754 0 3.272 1.18 3.407 2.867zm-22.879-1.619c0-.776.81-1.147 1.89-1.147 1.518 0 2.428.742 2.496 1.586h4.79c-.405-3.677-3.61-5.533-7.185-5.533-4.082 0-6.579 2.362-6.579 5.431 0 6.174 9.311 3.745 9.311 6.478 0 .775-.81 1.248-2.226 1.248-1.586 0-2.767-.743-2.868-1.856h-4.554c.337 3.745 3.34 5.938 7.658 5.938 3.744 0 6.612-2.328 6.612-5.364 0-6.916-9.345-4.217-9.345-6.78zM250.5 50.75c0-7.594-6.156-13.75-13.75-13.75H223v6.875c0 3.75 3.003 6.793 6.735 6.868H223c0 7.594 6.156 13.75 13.75 13.75v.007c7.594 0 13.75-6.156 13.75-13.75zm97.173 9.948h4.756V44.135h-4.756v16.563z" opacity=".99" transform="translate(-223 -37)"/>
    </g>
</svg>
